<svg width="900" height="263" viewBox="0 0 900 263" fill="none" xmlns="http://www.w3.org/2000/svg">
<g clip-path="url(#clip0_2647_577)">
<path d="M216.325 222.772C220.983 231.214 213.638 241.35 204.488 244.462C194.456 248.126 183.869 242.234 179.529 234.176C161.914 201.229 156.044 165.874 156.492 130.055C145.64 146.468 135.486 163.317 125.711 180.219C117.875 192.994 95.4296 192.202 89.7969 178.545C77.8954 150.465 69.974 121.93 64.9556 92.4499C62.5249 99.2161 60.5353 105.706 58.5456 112.196C54.2587 126.825 50.731 141.561 47.9623 156.404C45.1936 171.246 42.8045 186.143 41.1746 201.146C40.8158 205.158 40.3955 209.499 40.0368 213.511C40.1702 214.883 39.9241 216.203 39.678 217.522C39.873 218.565 39.5039 220.544 39.8219 220.927C39.1659 228.621 38.8895 236.367 38.9926 244.168C38.7881 253.617 32.3157 261.168 20.8164 262.256C11.2763 263.282 -0.141635 255.58 0.00132913 246.461C0.348784 227.892 1.51688 209.1 3.44409 190.415C10.3947 128.093 29.2962 66.4392 59.0922 9.028C66.9182 -5.77945 95.3235 -1.43961 96.1043 15.2573C97.3782 41.8403 99.7908 68.5838 104.665 94.6585C105.774 101.246 107.323 107.558 108.811 114.199L108.749 114.529C108.688 114.859 109.068 114.912 109.006 115.242C109.457 116.998 109.909 118.754 110.422 120.181C111.068 122.98 111.715 125.779 112.741 128.631C129.48 101.539 147.297 74.9373 165.873 48.4423C171.145 41.0608 179.659 37.1825 189.661 39.9455C198.904 42.6015 204.003 50.767 202.465 59.013C199.952 74.569 192.459 89.8827 191.147 105.269C190.778 107.248 190.788 109.281 190.419 111.26C190.296 111.92 190.235 112.249 190.491 112.963C190.43 113.292 190.368 113.622 190.368 113.622C190.132 116.974 189.897 120.326 189.661 123.678C189.508 130.765 189.672 138.235 189.898 145.376C190.566 152.24 191.171 159.434 192.218 166.352C192.424 169.427 193.009 172.556 193.594 175.685C194.045 177.441 194.497 179.197 194.568 180.9C194.825 181.613 194.763 181.943 195.081 182.326C195.02 182.656 195.02 182.656 195.338 183.039C199.011 196.759 209.369 209.945 216.325 222.772Z" fill="#1a5cff"/>
<path d="M285.655 218.735C240.415 218.735 210.981 188.211 210.981 145.424C210.981 102.636 240.415 72.1128 285.655 72.1128C330.895 72.1128 360.329 102.636 360.329 145.424C360.329 188.211 330.895 218.735 285.655 218.735ZM285.655 186.576C308.275 186.576 323.81 169.679 323.81 145.424C323.81 121.169 308.275 104.272 285.655 104.272C263.035 104.272 247.501 121.169 247.501 145.424C247.501 169.679 263.035 186.576 285.655 186.576Z" fill="#1a5cff"/>
<path d="M373.689 216.01C371.509 216.01 370.146 214.647 370.146 212.467V78.381C370.146 76.2007 371.509 74.8381 373.689 74.8381H399.307C401.488 74.8381 403.123 75.9282 403.123 78.381L403.94 94.4604C414.297 79.4711 432.011 72.1128 449.998 72.1128C482.702 72.1128 501.507 91.7351 501.507 124.166V212.467C501.507 214.647 500.144 216.01 497.964 216.01H469.621C467.44 216.01 466.078 214.647 466.078 212.467V138.611C466.078 115.173 457.629 104.272 439.097 104.272C421.928 104.272 405.576 117.081 405.576 144.061V212.467C405.576 214.647 404.213 216.01 402.033 216.01H373.689Z" fill="#1a5cff"/>
<path d="M581.702 218.735C551.178 218.735 534.281 199.658 534.281 161.503V106.452H513.569C511.388 106.452 510.026 105.089 510.026 102.909V78.381C510.026 76.2007 511.388 74.8381 513.569 74.8381H534.281V36.9561C534.281 34.7758 535.644 33.4132 537.824 33.4132H566.167C568.348 33.4132 569.71 34.7758 569.71 36.9561V74.8381H603.232C605.412 74.8381 606.775 76.2007 606.775 78.381V102.909C606.775 105.089 605.412 106.452 603.232 106.452H569.71V163.684C569.71 178.945 574.616 186.576 585.517 186.576C590.15 186.576 593.421 184.669 596.146 179.763C597.236 177.855 598.871 177.038 601.051 178.128L622.309 187.666C624.489 188.757 625.034 190.664 623.399 193.39C613.315 211.922 597.781 218.735 581.702 218.735Z" fill="#1a5cff"/>
<path d="M687.436 218.735C647.101 218.735 621.483 188.757 621.483 145.424C621.483 102.091 647.101 72.1128 687.436 72.1128C707.058 72.1128 723.41 80.2887 733.494 94.1879L734.311 78.381C734.311 75.9282 735.946 74.8381 738.127 74.8381H763.745C765.925 74.8381 767.288 76.2007 767.288 78.381V212.467C767.288 214.647 765.925 216.01 763.745 216.01H738.127C735.946 216.01 734.311 214.92 734.311 212.467L733.494 196.66C723.41 210.559 707.058 218.735 687.436 218.735ZM696.157 186.576C718.777 186.576 734.311 169.679 734.311 145.424C734.311 121.169 718.777 104.272 696.157 104.272C673.537 104.272 658.002 121.169 658.002 145.424C658.002 169.679 673.537 186.576 696.157 186.576Z" fill="#1a5cff"/>
<path d="M844.039 218.735C813.243 218.735 791.713 205.654 782.72 181.126C781.902 178.945 782.992 177.31 785.172 176.765L809.973 169.952C811.881 169.407 813.516 170.224 814.333 172.132C820.874 183.578 830.685 187.394 842.677 187.394C854.668 187.394 863.389 184.941 863.389 177.038C863.389 171.042 857.394 167.772 842.404 163.411L835.591 161.503C801.797 151.965 788.715 135.34 788.715 113.538C788.715 89.5548 810.518 72.1128 842.404 72.1128C869.658 72.1128 889.007 83.5591 897.728 107.542C898.546 109.722 897.728 111.357 895.548 111.902L870.748 119.806C868.567 120.623 867.205 119.806 866.115 117.898C861.209 109.177 853.851 103.454 841.859 103.454C832.593 103.454 825.235 106.179 825.235 113.538C825.235 120.078 831.503 123.894 847.037 127.709L853.578 129.345C888.19 138.066 899.909 152.782 899.909 176.22C899.909 202.111 876.471 218.735 844.039 218.735Z" fill="#1a5cff"/>
</g>
<defs>
<clipPath id="clip0_2647_577">
<rect width="900" height="263" fill="white"/>
</clipPath>
</defs>
</svg>
